<?xml version="1.0" standalone="no"?>
<!DOCTYPE svg PUBLIC "-//W3C//DTD SVG 20010904//EN"
 "http://www.w3.org/TR/2001/REC-SVG-20010904/DTD/svg10.dtd">
<svg version="1.0" xmlns="http://www.w3.org/2000/svg"
 width="128.000000pt" height="128.000000pt" viewBox="0 0 128.000000 128.000000"
 preserveAspectRatio="xMidYMid meet">
<metadata>
Created by potrace 1.13, written by Peter Selinger 2001-2015
</metadata>
<g transform="translate(0.000000,128.000000) scale(0.100000,-0.100000)"
fill="#eeeeee" stroke="none">
<path fill="#eeeeee" stroke="none" d="M575 1266 c-34 -15 -85 -70 -85 -92 0
-11 -17 -14 -75 -14 l-75 0 0 -50 0 -50 -65 0 c-57 0 -69 -3 -90 -25 l-25 -24
0 -481 0 -481 25 -24 24 -25 431 0 431 0 24 25 25 24 0 481 0 481 -25 24 c-21
22 -33 25 -90 25 l-65 0 0 50 0 50 -75 0 c-58 0 -75 3 -75 14 0 23 -51 78 -87
92 -40 17 -89 17 -128 0z"/>
<path fill="#ffffff" stroke="none" d="M695 1175 c17 -16 25 -35 25 -60 l0
-35 70 0 70 0 0 -60 0 -60 -220 0 -220 0 0 60 0 60 70 0 70 0 0 35 c0 46 37
85 80 85 19 0 40 -9 55 -25z"/>
<path fill="#ffffff" stroke="none" d="M340 930 l0 -50 300 0 300 0 0 50 0 50
50 0 50 0 0 -450 0 -450 -400 0 -400 0 0 450 0 450 50 0 50 0 0 -50z"/>
<path fill="#eeeeee" stroke="none" d="M610 1145 c-26 -32 13 -81 48 -59 34
22 22 74 -18 74 -10 0 -23 -7 -30 -15z"/>
<path fill="#eeeeee" stroke="none" d="M330 500 l0 -280 70 0 70 0 1 208 1
207 39 -155 c22 -85 47 -179 55 -208 l15 -53 62 3 62 3 42 165 c24 91 47 179
52 195 6 21 9 -20 10 -137 l1 -167 -26 -3 c-24 -3 -23 -5 35 -68 l61 -65 61
65 c60 63 61 65 35 68 l-26 3 0 250 0 250 -112 -3 -111 -3 -41 -162 c-22 -89
-42 -160 -44 -158 -2 2 -21 72 -43 156 -22 84 -42 156 -45 161 -3 4 -54 8
-115 8 l-109 0 0 -280z"/>
</g>
</svg>
